<svg width="23" height="23" viewBox="0 0 23 23" fill="none" xmlns="http://www.w3.org/2000/svg">
<path d="M8.96921 10.006C8.81572 9.85248 8.62131 9.78085 8.42689 9.78085C8.23247 9.78085 8.03805 9.85248 7.88456 10.006C7.58782 10.3027 7.58782 10.7939 7.88456 11.0906L10.9543 14.1604C11.0144 14.2204 11.0824 14.2683 11.1552 14.3041C11.2582 14.3561 11.3741 14.3855 11.4961 14.3855C11.604 14.3855 11.7071 14.3625 11.8008 14.3212C11.8876 14.2842 11.9688 14.2306 12.039 14.1604L15.1087 11.0906C15.4055 10.7939 15.4055 10.3027 15.1087 10.006C14.812 9.70922 14.3208 9.70922 14.0241 10.006L12.2635 11.7665L12.2635 5.43201C12.2635 5.01248 11.9156 4.66457 11.4961 4.66457C11.0766 4.66457 10.7287 5.00224 10.7287 5.43201L10.7287 11.7654L8.96921 10.006Z" fill="#42526E"/>
<path d="M5.1003 17.4637C7.15704 18.1492 9.32635 18.4971 11.4854 18.4971C13.6445 18.4971 15.8138 18.1595 17.8808 17.4637C18.2798 17.3306 18.4947 16.8906 18.3617 16.4916C18.2287 16.0925 17.7887 15.8776 17.3896 16.0106C13.5831 17.2795 9.39798 17.2795 5.59147 16.0106C5.1924 15.8674 4.75239 16.0925 4.61937 16.4916C4.48634 16.8906 4.70123 17.3306 5.1003 17.4637Z" fill="#42526E"/>
<path fill-rule="evenodd" clip-rule="evenodd" d="M8.42633 0.499999C2.87005 0.499998 0.496095 2.87395 0.496095 8.43024L0.496094 14.5698C0.496094 20.1261 2.87005 22.5 8.42633 22.5L14.5659 22.5C20.1221 22.5 22.4961 20.1261 22.4961 14.5698L22.4961 8.43024C22.4961 2.87395 20.1221 0.5 14.5659 0.499999L8.42633 0.499999ZM20.9612 14.5698C20.9612 19.287 19.2831 20.9651 14.5659 20.9651L8.42633 20.9651C3.70912 20.9651 2.03098 19.287 2.03098 14.5698L2.03098 8.43024C2.03098 3.71302 3.70912 2.03488 8.42633 2.03488L14.5659 2.03488C19.2831 2.03489 20.9612 3.71303 20.9612 8.43024L20.9612 14.5698Z" fill="#42526E"/>
</svg>
